<?xml version="1.0" encoding="UTF-8"?>
<svg width="61px" height="60px" viewBox="0 0 61 60" version="1.1" xmlns="http://www.w3.org/2000/svg" xmlns:xlink="http://www.w3.org/1999/xlink">
    <!-- Generator: Sketch 49.1 (51147) - http://www.bohemiancoding.com/sketch -->
    <title>instagram</title>
    <desc>Created with Sketch.</desc>
    <defs></defs>
    <g id="Page-1" stroke="none" stroke-width="1" fill="none" fill-rule="evenodd">
        <g id="instagram">
            <path d="M60.768,1.228 C60.768,0.589 60.249,0.07 59.609,0.07 L1.997,0.07 C1.357,0.07 0.838,0.589 0.838,1.228 L0.838,58.842 C0.838,59.48 1.357,60 1.997,60 L59.609,60 C60.249,60 60.768,59.48 60.768,58.842 L60.768,1.228" id="Fill-6" fill="#6D6E6D"></path>
            <path d="M45.115,40.941 C45.115,42.82 43.587,44.349 41.707,44.349 L19.896,44.349 C18.017,44.349 16.489,42.82 16.489,40.941 L16.489,26.387 L21.796,26.387 C21.663,26.712 21.55,27.047 21.453,27.39 C21.213,28.23 21.081,29.117 21.081,30.034 C21.081,35.394 25.443,39.757 30.803,39.757 C36.163,39.757 40.524,35.394 40.524,30.034 C40.524,29.117 40.392,28.23 40.15,27.389 C40.053,27.047 39.939,26.712 39.807,26.387 L45.115,26.387 L45.115,40.941 Z M25.729,26.387 C26.869,24.81 28.714,23.778 30.803,23.778 C32.891,23.778 34.737,24.81 35.877,26.387 C36.015,26.578 36.137,26.778 36.253,26.983 C36.763,27.887 37.062,28.927 37.062,30.034 C37.062,33.484 34.251,36.291 30.803,36.291 C27.352,36.291 24.544,33.484 24.544,30.034 C24.544,28.926 24.843,27.887 25.354,26.982 C25.469,26.778 25.593,26.577 25.729,26.387 Z M43.679,16.357 L44.464,16.352 L44.464,22.378 L38.46,22.398 L38.438,16.373 L43.679,16.357 Z M41.707,12.258 L19.896,12.258 C16.107,12.258 13.026,15.339 13.026,19.127 L13.026,40.941 C13.026,44.729 16.107,47.811 19.896,47.811 L41.707,47.811 C45.495,47.811 48.579,44.729 48.579,40.941 L48.579,19.127 C48.579,15.339 45.495,12.258 41.707,12.258 Z" id="Fill-7" fill="#FFFFFE"></path>
        </g>
    </g>
</svg>