<?xml version="1.0" encoding="UTF-8"?>
<svg width="61px" height="60px" viewBox="0 0 61 60" version="1.1" xmlns="http://www.w3.org/2000/svg" xmlns:xlink="http://www.w3.org/1999/xlink">
    <!-- Generator: Sketch 49.1 (51147) - http://www.bohemiancoding.com/sketch -->
    <title>pinterest</title>
    <desc>Created with Sketch.</desc>
    <defs></defs>
    <g id="Page-1" stroke="none" stroke-width="1" fill="none" fill-rule="evenodd">
        <g id="pinterest">
            <path d="M60.605,1.229 C60.605,0.589 60.088,0.07 59.448,0.07 L1.835,0.07 C1.195,0.07 0.677,0.589 0.677,1.229 L0.677,58.842 C0.677,59.481 1.195,60 1.835,60 L59.448,60 C60.088,60 60.605,59.481 60.605,58.842 L60.605,1.229" id="Fill-10" fill="#6D6E6D"></path>
            <path d="M31.501,12.259 C21.478,12.26 16.421,19.216 16.421,25.016 C16.421,26.087 16.55,27.123 16.813,28.078 C17.407,30.251 18.695,32.008 20.74,32.818 C21.227,33.008 21.659,32.825 21.799,32.306 C21.896,31.946 22.126,31.045 22.23,30.665 C22.369,30.153 22.316,29.975 21.927,29.527 C21.415,28.946 21.02,28.258 20.78,27.418 C20.621,26.859 20.531,26.235 20.531,25.524 C20.531,20.363 24.524,15.742 30.922,15.742 C36.588,15.742 39.703,19.093 39.703,23.567 C39.703,24.885 39.568,26.156 39.313,27.337 C38.432,31.431 36.115,34.425 33.016,34.425 C30.806,34.425 29.152,32.659 29.681,30.493 C29.984,29.259 30.421,27.981 30.796,26.778 C31.209,25.455 31.546,24.224 31.546,23.246 C31.546,21.576 30.618,20.182 28.7,20.182 C26.442,20.182 24.628,22.44 24.628,25.465 C24.628,26.036 24.688,26.549 24.771,26.992 C24.97,28.049 25.302,28.699 25.302,28.699 C25.302,28.699 22.992,38.166 22.588,39.826 C21.783,43.129 22.466,47.178 22.525,47.585 C22.559,47.829 22.882,47.887 23.027,47.704 C23.236,47.442 25.924,44.229 26.838,41.022 C27.096,40.11 28.321,35.408 28.321,35.408 C29.055,36.763 31.198,37.952 33.477,37.952 C39.002,37.952 43.079,33.981 44.401,28.18 C44.704,26.859 44.862,25.443 44.862,23.957 C44.862,17.9 39.56,12.259 31.501,12.259" id="Fill-12" fill="#FFFFFE"></path>
        </g>
    </g>
</svg>