<?xml version="1.0" encoding="UTF-8"?>
<svg width="60px" height="60px" viewBox="0 0 60 60" version="1.1" xmlns="http://www.w3.org/2000/svg" xmlns:xlink="http://www.w3.org/1999/xlink">
    <!-- Generator: Sketch 49.1 (51147) - http://www.bohemiancoding.com/sketch -->
    <title>facebook</title>
    <desc>Created with Sketch.</desc>
    <defs></defs>
    <g id="Page-1" stroke="none" stroke-width="1" fill="none" fill-rule="evenodd">
        <g id="facebook">
            <path d="M59.929,1.228 C59.929,0.589 59.411,0.07 58.771,0.07 L1.158,0.07 C0.519,0.07 0,0.589 0,1.228 L0,58.842 C0,59.48 0.519,60 1.158,60 L58.771,60 C59.411,60 59.929,59.48 59.929,58.842 L59.929,1.228" id="Fill-1" fill="#6D6E6D"></path>
            <path d="M32.61,22.925 L32.61,20.081 C32.61,18.696 33.534,18.373 34.182,18.373 C34.829,18.373 38.17,18.373 38.17,18.373 L38.17,12.281 L32.677,12.258 C26.58,12.258 25.194,16.802 25.194,19.71 L25.194,22.925 L21.668,22.925 L21.668,30.035 L25.225,30.035 C25.225,38.093 25.225,47.811 25.225,47.811 L32.334,47.811 C32.334,47.811 32.334,37.996 32.334,30.035 L37.612,30.035 L38.261,22.925 L32.61,22.925" id="Fill-3" fill="#FFFFFE"></path>
        </g>
    </g>
</svg>