<?xml version="1.0" encoding="UTF-8"?>
<svg width="61px" height="60px" viewBox="0 0 61 60" version="1.1" xmlns="http://www.w3.org/2000/svg" xmlns:xlink="http://www.w3.org/1999/xlink">
    <!-- Generator: Sketch 49.1 (51147) - http://www.bohemiancoding.com/sketch -->
    <title>twitter</title>
    <desc>Created with Sketch.</desc>
    <defs></defs>
    <g id="Page-1" stroke="none" stroke-width="1" fill="none" fill-rule="evenodd">
        <g id="twitter">
            <path d="M60.687,1.228 C60.687,0.589 60.169,0.07 59.529,0.07 L1.915,0.07 C1.276,0.07 0.757,0.589 0.757,1.228 L0.757,58.842 C0.757,59.48 1.276,60 1.915,60 L59.529,60 C60.169,60 60.687,59.48 60.687,58.842 L60.687,1.228" id="Fill-8" fill="#6D6E6D"></path>
            <path d="M48.499,19.181 C47.192,19.753 45.788,20.137 44.312,20.31 C45.819,19.422 46.974,18.016 47.52,16.337 C46.11,17.161 44.547,17.759 42.886,18.081 C41.558,16.686 39.661,15.813 37.563,15.813 C33.536,15.813 30.27,19.029 30.27,22.994 C30.27,23.558 30.335,24.103 30.456,24.63 C24.396,24.331 19.02,21.471 15.423,17.127 C14.797,18.187 14.434,19.422 14.434,20.737 C14.434,23.227 15.726,25.425 17.68,26.713 C16.485,26.676 15.359,26.353 14.375,25.815 C14.375,25.845 14.375,25.876 14.375,25.905 C14.375,26.825 14.555,27.7 14.874,28.508 C15.766,30.759 17.771,32.46 20.229,32.948 C19.614,33.11 18.972,33.2 18.305,33.2 C17.835,33.2 17.379,33.154 16.932,33.069 C17.862,35.922 20.556,37.999 23.746,38.056 C21.249,39.983 18.105,41.131 14.687,41.131 C14.097,41.131 13.518,41.097 12.944,41.03 C16.176,43.067 20.012,44.257 24.127,44.257 C35.53,44.257 42.538,36.356 44.387,28.161 C44.714,26.712 44.882,25.254 44.882,23.827 C44.882,23.517 44.877,23.206 44.862,22.898 C46.287,21.886 47.524,20.622 48.499,19.181" id="Fill-9" fill="#FFFFFE"></path>
        </g>
    </g>
</svg>