<?xml version="1.0" encoding="UTF-8"?>
<svg width="61px" height="60px" viewBox="0 0 61 60" version="1.1" xmlns="http://www.w3.org/2000/svg" xmlns:xlink="http://www.w3.org/1999/xlink">
    <!-- Generator: Sketch 49.1 (51147) - http://www.bohemiancoding.com/sketch -->
    <title>youtube</title>
    <desc>Created with Sketch.</desc>
    <defs></defs>
    <g id="Page-1" stroke="none" stroke-width="1" fill="none" fill-rule="evenodd">
        <g id="youtube">
            <path d="M60.849,1.228 C60.849,0.589 60.33,0.07 59.69,0.07 L2.077,0.07 C1.438,0.07 0.919,0.589 0.919,1.228 L0.919,58.842 C0.919,59.48 1.438,60 2.077,60 L59.69,60 C60.33,60 60.849,59.48 60.849,58.842 L60.849,1.228" id="Fill-4" fill="#6D6E6D"></path>
            <path d="M36.816,29.656 L27.214,34.844 L27.212,26.856 L27.212,24.429 L36.816,29.656 Z M48.303,22.622 C48.303,22.622 47.957,20.065 46.892,18.941 C45.54,17.467 44.024,17.457 43.332,17.372 C38.354,16.999 30.893,16.999 30.893,16.999 L30.876,16.999 C30.876,16.999 23.411,16.999 18.437,17.373 C17.742,17.457 16.229,17.467 14.874,18.942 C13.811,20.067 13.463,22.624 13.463,22.624 C13.463,22.624 13.107,25.622 13.107,28.623 L13.107,31.434 C13.107,34.435 13.463,37.435 13.463,37.435 C13.463,37.435 13.811,39.99 14.874,41.114 C16.229,42.591 18.007,42.544 18.796,42.697 C21.641,42.981 30.884,43.071 30.884,43.071 C30.884,43.071 38.354,43.058 43.332,42.685 C44.024,42.598 45.54,42.591 46.892,41.113 C47.957,39.989 48.303,37.435 48.303,37.435 C48.303,37.435 48.661,34.435 48.661,31.434 L48.661,28.623 C48.661,25.622 48.303,22.622 48.303,22.622 Z" id="Fill-5" fill="#FFFFFE"></path>
        </g>
    </g>
</svg>